Coordinates
version=1
nRows=29
nColumns=24
inDegrees=yes

Units are S.I. units (second, meters, Newtons, ...)
Angles are in degrees.

endheader
time	pelvis_tilt	pelvis_list	pelvis_rotation	pelvis_tx	pelvis_ty	pelvis_tz	hip_flexion_r	hip_adduction_r	hip_rotation_r	knee_angle_r	ankle_angle_r	subtalar_angle_r	mtp_angle_r	hip_flexion_l	hip_adduction_l	hip_rotation_l	knee_angle_l	ankle_angle_l	subtalar_angle_l	mtp_angle_l	lumbar_extension	lumbar_bending	lumbar_rotation
      5.55500000	     -8.03545049	     -4.42413083	      3.58946795	     -0.72183914	      0.00070182	     -0.26061988	     11.66668744	      8.80226468	      6.25601070	    -12.83228868	      1.35535760	     -4.29937287	     10.45740084	     27.69157902	     -5.94996391	     -0.30253209	    -62.14904169	    -13.34102677	     -1.93425580	     26.27034778	      7.34874404	      4.01192571	      1.52438653
      5.56000000	     -8.06183714	     -4.16828815	      3.35191105	     -0.71662318	      0.00113625	     -0.26001542	     11.13282962	      8.61949984	      6.56887098	    -12.50689062	      1.57153664	     -4.27858783	     10.16968093	     28.28584759	     -5.67167695	     -0.59749046	    -61.56254621	    -12.64808497	     -2.31079674	     25.69974129	      7.28182954	      3.76831148	      1.88702273
      5.56500000	     -8.08335633	     -3.92258193	      3.12393248	     -0.71144265	      0.00151618	     -0.25946117	     10.59895018	      8.43322704	      6.83378842	    -12.17391015	      1.78119333	     -4.22564753	      9.97340062	     28.86041771	     -5.39909198	     -0.86626590	    -60.91069153	    -11.99163685	     -2.67806079	     25.15587930	      7.20680684	      3.54099842	      2.23061632
      5.57000000	     -8.09453788	     -3.69003256	      2.90378678	     -0.70627755	      0.00184296	     -0.25893948	     10.05312160	      8.24967925	      7.06296405	    -11.82545299	      1.98507267	     -4.14880573	      9.85522914	     29.40861514	     -5.13943954	     -1.11228655	    -60.19841927	    -11.36498819	     -3.02309726	     24.60058296	      7.12042404	      3.32753781	      2.56500367
      5.57500000	     -8.09371742	     -3.47317951	      2.68692173	     -0.70113172	      0.00211810	     -0.25846032	      9.49641821	      8.07251257	      7.25698446	    -11.46685957	      2.17563550	     -4.04845981	      9.81115106	     29.92774427	     -4.89435339	     -1.33565359	    -59.42926924	    -10.75765795	     -3.33865695	     24.01937296	      7.01756422	      3.13709545	      2.89693760
      5.58000000	     -8.07960643	     -3.27191811	      2.48350626	     -0.69600063	      0.00234324	     -0.25802953	      8.92436924	      7.90082295	      7.40872122	    -11.09164646	      2.35154114	     -3.93873959	      9.83964251	     30.41932508	     -4.65723129	     -1.51898428	    -58.60815892	    -10.17337723	     -3.59763358	     23.38277198	      6.90138444	      2.96778041	      3.24858864
      5.58500000	     -8.06825284	     -3.08109358	      2.27793391	     -0.69088904	      0.00248919	     -0.25760360	      8.36569568	      7.73626271	      7.54823863	    -10.72690052	      2.51883669	     -3.83472540	      9.94147463	     30.89337764	     -4.43924281	     -1.69668312	    -57.72392260	     -9.61768641	     -3.84031227	     22.80972276	      6.78589899	      2.80443454	      3.56121433
      5.59000000	     -8.05245281	     -2.89723087	      2.06950932	     -0.68579498	      0.00257773	     -0.25718284	      7.81338153	      7.57623458	      7.69170944	    -10.37813515	      2.67581467	     -3.73411935	     10.08522450	     31.33853336	     -4.23373889	     -1.86138674	    -56.77326810	     -9.10074691	     -4.06537732	     22.29313885	      6.66289537	      2.64428888	      3.85401688
      5.59500000	     -8.01417508	     -2.72610682	      1.86529702	     -0.68070381	      0.00262438	     -0.25683094	      7.23497472	      7.42120303	      7.81910333	    -10.01736453	      2.82844620	     -3.64739743	     10.27118546	     31.74076375	     -4.03771200	     -2.00003768	    -55.77296986	     -8.61049402	     -4.23819567	     21.71071291	      6.51702981	      2.51670119	      4.18242648
      5.60000000	     -7.98888842	     -2.56500393	      1.65670054	     -0.67561848	      0.00260300	     -0.25647086	      6.68720174	      7.27716394	      7.96433437	     -9.68889932	      2.96994670	     -3.57583294	     10.44720931	     32.12928155	     -3.86016380	     -2.12948042	    -54.70428942	     -8.15236223	     -4.38473377	     21.19370622	      6.38712769	      2.38710103	      4.46507385
      5.60500000	     -7.93996147	     -2.41784981	      1.45864672	     -0.67056619	      0.00252440	     -0.25616389	      6.12055954	      7.14388467	      8.10172673	     -9.36603576	      3.12184576	     -3.53937129	     10.62231824	     32.47964070	     -3.69396160	     -2.23684893	    -53.59602724	     -7.71442779	     -4.49249330	     20.62491337	      6.22259372	      2.28038115	      4.79167859
      5.61000000	     -7.90404184	     -2.27799912	      1.24710515	     -0.66550385	      0.00240645	     -0.25586294	      5.58265454	      7.01748343	      8.27186027	     -9.07546196	      3.25778155	     -3.50786691	     10.75139752	     32.80793362	     -3.54406272	     -2.33677510	    -52.41340659	     -7.31739583	     -4.57150910	     20.09338337	      6.07669157	      2.18228340	      5.08227946
      5.61500000	     -7.93894999	     -2.15105014	      1.08130604	     -0.66046157	      0.00213622	     -0.25560851	      5.14584020	      6.90267129	      8.39213150	     -8.82947406	      3.42537135	     -3.53180160	     10.80706474	     33.19759664	     -3.38405211	     -2.36682434	    -51.16558628	     -6.99844590	     -4.61300088	     19.80993371	      6.00940431	      2.08283632	      5.29727470
      5.62000000	     -7.82878905	     -2.02523739	      0.82968897	     -0.65538743	      0.00199713	     -0.25532687	      4.53282501	      6.79105303	      8.65408919	     -8.55835965	      3.59590161	     -3.52870826	     10.84937075	     33.38400200	     -3.29395510	     -2.53604931	    -49.87223284	     -6.67412666	     -4.68945475	     19.17835119	      5.78413828	      2.01896126	      5.66153538
      5.62500000	     -7.75264757	     -1.92090834	      0.61603547	     -0.65038333	      0.00177930	     -0.25508487	      3.99555489	      6.70317084	      8.87823280	     -8.35488506	      3.73916203	     -3.59292388	     10.80633379	     33.58678975	     -3.18843671	     -2.59124359	    -48.52668731	     -6.30973213	     -4.65651330	     18.45373256	      5.58358919	      1.95628371	      5.98367112
      5.63000000	     -7.82464460	     -1.84558744	      0.46772432	     -0.64538028	      0.00133133	     -0.25493403	      3.64604636	      6.63925567	      8.99023401	     -8.19520860	      3.90776160	     -3.65792343	     10.79349690	     33.94102409	     -3.07763067	     -2.55035124	    -47.11664150	     -6.10641027	     -4.61211004	     18.20131192	      5.55153653	      1.91536199	      6.17846685
      5.63500000	     -7.74462875	     -1.73302124	      0.19515456	     -0.64030384	      0.00104985	     -0.25467329	      3.11301056	      6.54156457	      9.32156905	     -8.02581864	      4.09564928	     -3.72864931	     10.68065872	     34.05744673	     -3.03189143	     -2.74671761	    -45.63484254	     -5.87483655	     -4.65480130	     17.59940513	      5.36112015	      1.85937592	      6.51298385
      5.64000000	     -7.65117371	     -1.66893109	     -0.03324418	     -0.63535091	      0.00073343	     -0.25450016	      2.60201469	      6.49600507	      9.61783438	     -7.91633010	      4.26328645	     -3.87206519	     10.40717685	     34.15095976	     -2.98982006	     -2.80380227	    -44.12945535	     -5.57505613	     -4.56180596	     16.79006536	      5.12721625	      1.85259308	      6.85393230
      5.64500000	     -7.69809076	     -1.60149022	     -0.23185464	     -0.63027680	      0.00022133	     -0.25435032	      2.24601258	      6.44043213	      9.84481797	     -7.81991658	      4.46993309	     -3.95451110	     10.24111188	     34.36475443	     -2.94843575	     -2.87797532	    -42.55791601	     -5.39326028	     -4.47664049	     16.29833361	      5.08004050	      1.82660526	      7.06938232
      5.65000000	     -7.62628123	     -1.57204917	     -0.42657138	     -0.62529252	     -0.00021152	     -0.25421465	      1.77802525	      6.43376384	     10.11857686	     -7.76526520	      4.71246895	     -4.11796725	      9.67746517	     34.43277882	     -2.93523166	     -2.89358089	    -40.98819482	     -5.02303724	     -4.22304044	     15.31169877	      4.87563318	      1.84122575	      7.34239397
      5.65500000	     -7.71923791	     -1.52909173	     -0.67431352	     -0.62026718	     -0.00083529	     -0.25406135	      1.52229547	      6.40445088	     10.34402746	     -7.75717853	      4.93614820	     -4.13505313	      9.61686889	     34.63412772	     -2.95061149	     -2.98802580	    -39.31775623	     -4.99297270	     -4.21429372	     15.00385827	      4.86551759	      1.85293572	      7.63372888
      5.66000000	     -7.75757833	     -1.47831468	     -0.91123455	     -0.61526468	     -0.00144037	     -0.25391622	      1.22225658	      6.36848864	     10.57834618	     -7.77850091	      5.15081506	     -4.21284846	      9.51855802	     34.74326452	     -2.95541250	     -3.05693325	    -37.60650767	     -4.92903732	     -4.11662772	     14.65885731	      4.78514521	      1.84944866	      7.92713217
      5.66500000	     -7.72021927	     -1.47180439	     -1.18398513	     -0.61020010	     -0.00200128	     -0.25377348	      0.82041798	      6.37514708	     10.85325943	     -7.77455974	      5.36106106	     -4.29022661	      9.24507243	     34.74619310	     -3.03100730	     -3.18629176	    -35.90085265	     -4.75654210	     -3.99060038	     14.08471139	      4.62939115	      1.90586097	      8.27433678
      5.67000000	     -7.81211341	     -1.44822623	     -1.40037748	     -0.60508028	     -0.00272528	     -0.25369709	      0.57539898	      6.35755932	     11.05930979	     -7.80425771	      5.58798789	     -4.30666557	      9.14012795	     34.87247342	     -3.06153986	     -3.24185120	    -34.16688890	     -4.68778381	     -3.78514357	     13.71342842	      4.62831334	      1.93315213	      8.50166733
      5.67500000	     -7.79463313	     -1.45323563	     -1.66281234	     -0.60002693	     -0.00337509	     -0.25356533	      0.23840502	      6.37527048	     11.27529719	     -7.88901595	      5.87480653	     -4.28588448	      8.85558240	     34.86176940	     -3.14431946	     -3.30567579	    -32.45330722	     -4.47296101	     -3.49522034	     13.05169698	      4.48480529	      1.98684462	      8.83482644
      5.68000000	     -7.90091788	     -1.44625242	     -1.90208903	     -0.59481098	     -0.00420552	     -0.25349170	      0.02827174	      6.37337294	     11.42454158	     -7.96606948	      6.14795696	     -4.23262111	      8.80828051	     34.96040143	     -3.20793657	     -3.37340626	    -30.71597291	     -4.34413278	     -3.26387356	     12.71390760	      4.51361145	      2.03282159	      9.10793702
      5.68500000	     -8.03575172	     -1.50247527	     -2.04178333	     -0.58960406	     -0.00511671	     -0.25356877	     -0.15715355	      6.43304240	     11.48741871	     -8.02320526	      6.31927108	     -4.24283929	      8.84802779	     35.10275474	     -3.26432652	     -3.23528000	    -29.00092004	     -4.27776767	     -2.99092925	     12.58485124	      4.56821624	      2.13962684	      9.27066347
      5.69000000	     -8.05842871	     -1.43272660	     -2.38039759	     -0.58432639	     -0.00583710	     -0.25336403	     -0.42642970	      6.35667588	     11.66534723	     -8.16311418	      6.64289239	     -4.03829159	      8.92804635	     35.03901832	     -3.33907070	     -3.44332333	    -27.24182884	     -4.12152476	     -2.67663652	     12.26503760	      4.50889763	      2.11740608	      9.65581690
      5.69500000	     -8.11465984	     -1.39731333	     -2.60794920	     -0.57901889	     -0.00662995	     -0.25333248	     -0.66416978	      6.30882823	     11.73150161	     -8.29208210	      6.92716268	     -3.85246001	      9.03578858	     35.01925295	     -3.36583126	     -3.43191768	    -25.51405855	     -3.96987284	     -2.32921515	     12.00911622	      4.48936280	      2.12353509	      9.91775972
